<!DOCTYPE svg PUBLIC "-//W3C//DTD SVG 20010904//EN" "http://www.w3.org/TR/2001/REC-SVG-20010904/DTD/svg10.dtd">
<svg version="1.0" xmlns="http://www.w3.org/2000/svg" width="274px" height="84px" viewBox="0 0 2740 840" preserveAspectRatio="xMidYMid meet">
<g id="layer1" fill="#f6f5f5" stroke="none">
 <path d="M1740 812 c0 -5 11 -40 24 -79 13 -39 22 -74 18 -77 -3 -3 -27 -6 -54 -6 l-48 0 0 -145 0 -145 -60 0 -60 0 0 145 0 145 -60 0 -60 0 0 -146 0 -145 -42 3 -43 3 3 41 c7 93 -48 187 -133 225 -48 22 -133 24 -180 5 l-35 -15 0 95 0 94 -55 0 -55 0 0 -80 0 -80 -39 0 c-24 0 -41 -5 -44 -14 -5 -12 -13 -12 -59 1 -96 29 -210 -14 -258 -95 l-21 -36 -42 49 c-22 26 -59 56 -81 66 -49 22 -129 24 -185 4 l-41 -14 0 94 0 95 -50 0 -50 0 0 -305 0 -305 50 0 c38 0 50 4 50 15 0 18 -1 18 43 0 47 -19 128 -19 175 1 42 17 86 56 112 96 l16 28 31 -43 c33 -48 84 -77 154 -88 42 -7 72 -3 137 16 22 7 22 6 22 -89 l0 -96 55 0 55 0 0 85 0 85 40 0 c29 0 40 4 40 15 0 18 12 19 27 4 16 -16 114 -22 160 -10 23 6 56 23 72 37 58 48 138 39 177 -21 14 -21 24 -25 65 -25 l49 0 0 40 c0 37 2 40 28 40 35 0 79 -23 104 -55 15 -20 28 -25 64 -25 l44 0 0 197 c0 108 4 193 8 188 4 -6 20 -48 34 -95 89 -288 140 -440 149 -446 22 -13 22 9 1 74 -12 38 -22 74 -22 80 0 9 48 12 180 12 l180 0 0 25 c0 14 1 25 3 25 1 0 24 -11 51 -25 90 -46 185 -29 256 44 73 74 89 165 46 257 -79 169 -321 169 -408 0 -11 -21 -21 -56 -23 -78 -1 -21 -5 -41 -7 -44 -6 -5 -82 157 -98 209 l-12 37 -64 0 c-47 0 -64 -4 -64 -14 0 -39 113 -266 158 -318 14 -17 9 -18 -101 -18 -103 0 -117 -2 -117 -17 0 -30 -15 0 -37 72 -90 294 -146 455 -159 455 -8 0 -14 -4 -14 -8z m-760 -137 c0 -66 4 -105 10 -105 6 0 25 10 41 23 25 18 44 22 99 22 60 0 74 -4 112 -30 91 -63 113 -175 52 -266 -55 -83 -171 -114 -259 -69 -49 25 -55 25 -55 0 0 -15 -7 -20 -25 -20 l-25 0 0 275 0 275 25 0 25 0 0 -105z m-880 -10 c0 -58 3 -105 8 -105 4 0 29 11 56 25 202 102 393 -137 242 -303 -41 -46 -94 -65 -163 -59 -35 2 -74 12 -88 21 -33 22 -55 20 -55 -4 0 -13 -7 -20 -20 -20 -20 0 -20 7 -20 275 0 268 0 275 20 275 19 0 20 -7 20 -105z m2040 -110 c30 -78 88 -181 132 -235 15 -19 28 -45 28 -57 0 -23 0 -23 -160 -23 -153 0 -160 1 -160 20 0 19 7 20 125 20 75 0 125 4 125 10 0 5 -18 33 -39 61 -46 61 -118 200 -127 247 -7 32 -6 33 21 30 24 -3 31 -12 55 -73z m457 39 c58 -46 86 -107 79 -173 -14 -152 -182 -227 -312 -139 -90 61 -100 214 -18 289 52 48 84 60 151 56 52 -2 69 -8 100 -33z m-1800 -4 c44 -26 53 -25 53 5 0 20 5 25 25 25 l25 0 0 -280 0 -280 -25 0 -25 0 0 105 c0 111 -4 120 -46 91 -43 -31 -108 -39 -166 -22 -117 34 -178 156 -129 261 51 111 186 155 288 95z"/>
 <path d="M1048 548 c-86 -50 -91 -184 -11 -243 40 -29 129 -32 171 -6 67 43 90 121 54 191 -38 76 -136 103 -214 58z m148 -24 c50 -34 67 -99 39 -154 -22 -43 -53 -60 -108 -60 -42 0 -54 5 -83 34 -76 76 -23 194 89 196 21 0 49 -7 63 -16z"/>
 <path d="M183 544 c-99 -49 -101 -207 -3 -256 79 -40 175 -12 212 62 65 130 -76 260 -209 194z m153 -39 c56 -43 58 -122 4 -176 -23 -24 -37 -29 -75 -29 -83 0 -125 41 -125 122 0 34 6 46 36 74 46 44 109 48 160 9z"/>
 <path d="M2413 571 c-76 -35 -105 -134 -62 -211 52 -93 200 -95 260 -4 23 35 25 113 4 154 -35 68 -127 96 -202 61z m160 -61 c65 -72 8 -190 -93 -190 -103 0 -155 122 -83 194 52 52 126 51 176 -4z"/>
 <path d="M635 556 c-94 -42 -120 -149 -55 -228 33 -40 97 -62 150 -52 43 9 96 61 109 109 32 118 -91 221 -204 171z m123 -36 c95 -58 66 -195 -45 -216 -76 -14 -149 55 -138 131 7 45 18 61 60 87 39 23 82 23 123 -2z"/>
 </g>
<g id="layer2" fill="#202020" stroke="none">
 <path d="M0 420 l0 -420 1370 0 1370 0 0 420 0 420 -1370 0 -1370 0 0 -420z m1830 208 c34 -106 71 -224 83 -263 22 -72 37 -102 37 -72 0 15 14 17 117 17 110 0 115 1 101 18 -45 52 -158 279 -158 318 0 10 17 14 64 14 l64 0 12 -37 c16 -52 92 -214 98 -209 2 3 6 23 7 44 9 113 112 205 230 204 93 -1 163 -45 201 -126 43 -92 27 -183 -46 -257 -71 -73 -166 -90 -256 -44 -27 14 -50 25 -51 25 -2 0 -3 -11 -3 -25 l0 -25 -180 0 c-132 0 -180 -3 -180 -12 0 -6 10 -42 22 -80 21 -65 21 -87 -1 -74 -9 6 -60 158 -149 446 -14 47 -30 89 -34 95 -4 5 -8 -80 -8 -188 l0 -197 -44 0 c-36 0 -49 5 -64 25 -25 32 -69 55 -104 55 -26 0 -28 -3 -28 -40 l0 -40 -49 0 c-41 0 -51 4 -65 25 -39 60 -119 69 -177 21 -16 -14 -49 -31 -72 -37 -46 -12 -144 -6 -160 10 -15 15 -27 14 -27 -4 0 -11 -11 -15 -40 -15 l-40 0 0 -85 0 -85 -55 0 -55 0 0 96 c0 95 0 96 -22 89 -65 -19 -95 -23 -137 -16 -70 11 -121 40 -154 88 l-31 43 -16 -28 c-26 -40 -70 -79 -112 -96 -47 -20 -128 -20 -175 -1 -44 18 -43 18 -43 0 0 -11 -12 -15 -50 -15 l-50 0 0 305 0 305 50 0 50 0 0 -95 0 -94 41 14 c56 20 136 18 185 -4 22 -10 59 -40 81 -66 l42 -49 21 36 c48 81 162 124 258 95 46 -13 54 -13 59 -1 3 9 20 14 44 14 l39 0 0 80 0 80 55 0 55 0 0 -94 0 -95 35 15 c19 7 58 14 87 14 132 -1 236 -112 226 -244 l-3 -41 43 -3 42 -3 0 145 0 146 60 0 60 0 0 -145 0 -145 60 0 60 0 0 145 0 145 48 0 c27 0 51 3 54 6 4 3 -5 38 -18 77 -28 83 -29 87 -10 87 10 0 34 -60 76 -192z"/>
 <path d="M930 505 l0 -275 25 0 c18 0 25 5 25 20 0 25 6 25 55 0 88 -45 204 -14 259 69 61 91 39 203 -52 266 -38 26 -52 30 -112 30 -55 0 -74 -4 -99 -22 -16 -13 -35 -23 -41 -23 -6 0 -10 39 -10 105 l0 105 -25 0 -25 0 0 -275z m281 42 c92 -61 90 -189 -3 -248 -42 -26 -131 -23 -171 6 -54 40 -73 124 -42 189 34 71 148 99 216 53z"/>
 <path d="M1069 525 c-38 -21 -59 -58 -59 -106 0 -33 6 -47 34 -75 29 -29 41 -34 83 -34 55 0 86 17 108 60 41 80 -14 171 -102 170 -21 -1 -50 -7 -64 -15z"/>
 <path d="M60 495 c0 -268 0 -275 20 -275 13 0 20 7 20 20 0 24 22 26 55 4 14 -9 53 -19 88 -21 51 -4 71 -1 103 15 98 50 139 153 99 250 -47 111 -170 153 -281 97 -27 -14 -52 -25 -56 -25 -5 0 -8 47 -8 105 0 98 -1 105 -20 105 -20 0 -20 -7 -20 -275z m278 45 c126 -77 72 -270 -77 -270 -91 0 -154 59 -154 145 0 53 32 107 76 129 45 22 115 20 155 -4z"/>
 <path d="M176 496 c-30 -28 -36 -40 -36 -74 0 -81 42 -122 125 -122 38 0 52 5 75 29 81 80 31 201 -83 201 -38 0 -51 -6 -81 -34z"/>
 <path d="M2064 598 c9 -47 81 -186 127 -247 21 -28 39 -56 39 -61 0 -6 -50 -10 -125 -10 -118 0 -125 -1 -125 -20 0 -19 7 -20 160 -20 160 0 160 0 160 23 0 12 -13 38 -28 57 -44 54 -102 157 -132 235 -24 61 -31 70 -55 73 -27 3 -28 2 -21 -30z"/>
 <path d="M2405 614 c-78 -42 -115 -101 -115 -181 0 -151 156 -237 292 -160 86 48 121 161 76 246 -13 25 -40 58 -61 75 -31 25 -48 31 -100 33 -43 2 -71 -2 -92 -13z m166 -55 c40 -28 59 -69 59 -126 0 -85 -58 -143 -142 -143 -125 0 -194 110 -137 221 38 76 148 100 220 48z"/>
 <path d="M2454 548 c-73 -19 -110 -96 -79 -162 55 -115 225 -71 225 58 0 68 -77 123 -146 104z"/>
 <path d="M626 606 c-74 -28 -135 -111 -136 -184 -1 -121 130 -222 247 -192 26 6 55 18 67 26 42 29 46 20 46 -91 l0 -105 25 0 25 0 0 280 0 280 -25 0 c-20 0 -25 -5 -25 -25 0 -30 -9 -31 -53 -5 -46 27 -122 34 -171 16z m121 -47 c105 -39 130 -168 48 -245 -135 -127 -337 68 -212 205 42 46 107 62 164 40z"/>
 <path d="M635 522 c-42 -26 -53 -42 -60 -87 -4 -30 -1 -48 14 -73 57 -90 192 -74 222 27 30 100 -86 188 -176 133z"/>
 </g>

</svg>